<svg width="217" height="241" viewBox="0 0 217 241" fill="none" xmlns="http://www.w3.org/2000/svg">
<path d="M102.602 192.076H5.32293L0 36.1193H97.2787L102.602 192.076Z" fill="#FD8F47"/>
<path d="M106.602 187.957H9.32293L4 32H101.279L106.602 187.957Z" fill="#FFCFAD"/>
<path opacity="0.3" d="M106.602 186.957H9.32293L4 31H101.279L106.602 186.957Z" fill="#FFEFDE"/>
<path d="M74.8721 95.4505C85.2879 84.8882 84.8448 67.6171 73.8824 56.8744C62.9199 46.1317 45.5895 45.9854 35.1737 56.5476C24.7579 67.1099 25.201 84.381 36.1634 95.1237C47.1259 105.866 64.4563 106.013 74.8721 95.4505Z" fill="#496686"/>
<path d="M77.6037 76.0082C77.7463 79.7246 76.9327 83.4155 75.2403 86.73C73.4161 90.3011 70.6304 93.2954 67.1953 95.3772C63.7602 97.4591 59.8114 98.5463 55.7914 98.517C51.675 98.4933 47.6371 97.392 44.0819 95.3234C40.5267 93.2547 37.5791 90.2914 35.5341 86.73C33.6299 83.4657 32.5661 79.7822 32.4377 76.0082C32.3113 73.082 32.783 70.1607 33.8242 67.4218C34.8654 64.683 36.4544 62.1837 38.4945 60.0759C40.5346 57.9681 42.9832 56.2958 45.6917 55.1606C48.4002 54.0253 51.3119 53.4509 54.25 53.4721C60.3027 53.5148 66.1063 55.8801 70.4553 60.0769C74.8042 64.2736 77.3643 69.9791 77.6037 76.0082Z" fill="white"/>
<path opacity="0.6" d="M75.2403 86.7299C73.4161 90.3011 70.6304 93.2954 67.1953 95.3772C63.7602 97.4591 59.8114 98.5463 55.7914 98.517C51.675 98.4933 47.6371 97.392 44.0819 95.3234C40.5268 93.2547 37.5791 90.2913 35.5342 86.7299C41.3248 82.7974 48.1751 80.7068 55.1817 80.734C62.3107 80.7446 69.2817 82.8284 75.2403 86.7299Z" fill="#496686"/>
<path opacity="0.6" d="M62.0561 75.4554C65.8861 71.5716 65.7232 65.2208 61.6922 61.2706C57.6612 57.3204 51.2886 57.2667 47.4586 61.1505C43.6286 65.0344 43.7916 71.3851 47.8225 75.3353C51.8535 79.2855 58.2261 79.3393 62.0561 75.4554Z" fill="#496686"/>
<path d="M87.9207 130.757H25.861L25.4431 118.465H87.496L87.9207 130.757Z" fill="white"/>
<path d="M88.6675 152.727H26.6147L26.1899 140.434H88.2496L88.6675 152.727Z" fill="white"/>
<path d="M64.7177 142.128L49.7629 144.177C49.6201 144.194 49.4824 144.24 49.3584 144.312C49.2344 144.385 49.1269 144.483 49.0426 144.599C48.9583 144.715 48.899 144.847 48.8685 144.987C48.838 145.127 48.837 145.272 48.8654 145.413L50.8247 155.404C50.8876 155.697 51.0596 155.956 51.3061 156.128C51.5527 156.301 51.8555 156.374 52.1537 156.332L67.1086 154.284C67.2516 154.267 67.3895 154.22 67.5137 154.148C67.638 154.075 67.7459 153.978 67.8307 153.862C67.9156 153.746 67.9755 153.614 68.0069 153.474C68.0382 153.334 68.0403 153.189 68.0129 153.048L66.0468 143.057C65.9838 142.763 65.8118 142.504 65.5653 142.332C65.3188 142.16 65.016 142.087 64.7177 142.128ZM60.4224 152.249L57.6822 152.611L57.4081 149.387C57.1261 149.266 56.8777 149.079 56.6844 148.841C56.4911 148.603 56.3586 148.322 56.2983 148.021C56.248 147.789 56.247 147.549 56.2953 147.317C56.3437 147.084 56.4404 146.864 56.5791 146.671C56.7179 146.478 56.8956 146.317 57.1009 146.196C57.3063 146.076 57.5346 146 57.7712 145.973C58.2651 145.901 58.7677 146.021 59.1764 146.306C59.585 146.592 59.869 147.022 59.9703 147.509C60.0313 147.796 60.0146 148.094 59.9219 148.373C59.8292 148.651 59.6638 148.9 59.4428 149.094L60.4224 152.249Z" fill="#496686"/>
<path d="M63.2449 141.588C62.98 141.625 62.7109 141.56 62.4922 141.407C62.2735 141.253 62.1213 141.023 62.0666 140.762L61.8747 139.785C61.601 138.453 60.8516 137.264 59.7657 136.44C58.6798 135.617 57.331 135.213 55.9695 135.306C55.2819 135.344 54.6106 135.529 54.0012 135.849C53.3918 136.169 52.8587 136.616 52.4382 137.159C52.0176 137.703 51.7194 138.331 51.564 138.999C51.4085 139.668 51.3994 140.363 51.5372 141.035L51.7564 142.162C51.7809 142.287 51.7792 142.415 51.7514 142.539C51.7237 142.663 51.6705 142.78 51.5953 142.883C51.52 142.986 51.4242 143.072 51.314 143.136C51.2038 143.2 51.0815 143.24 50.9549 143.255C50.69 143.291 50.421 143.227 50.2022 143.073C49.9835 142.92 49.8313 142.689 49.7766 142.428L49.5916 141.472C49.4035 140.586 49.3973 139.67 49.5734 138.781C49.7495 137.892 50.1042 137.047 50.6162 136.298C51.1282 135.549 51.7869 134.911 52.5526 134.423C53.3184 133.934 54.1754 133.605 55.0721 133.455C57.016 133.129 59.011 133.562 60.6436 134.663C62.2763 135.764 63.4211 137.449 63.8409 139.369L64.0601 140.496C64.0856 140.622 64.0843 140.751 64.0562 140.877C64.0281 141.002 63.9738 141.12 63.8969 141.223C63.82 141.326 63.7222 141.412 63.6099 141.475C63.4975 141.538 63.3732 141.577 63.2449 141.588Z" fill="#496686"/>
<path d="M78.4259 169.943H38.0346L37.7606 161.939H78.1518L78.4259 169.943Z" fill="#496686"/>
<path d="M58.9152 124.611C58.9273 124.903 58.8798 125.194 58.7755 125.467C58.6713 125.741 58.5125 125.99 58.3088 126.2C58.1051 126.41 57.8608 126.576 57.5905 126.69C57.3203 126.803 57.0298 126.86 56.7367 126.858C56.1329 126.855 55.5535 126.619 55.1195 126.201C54.6856 125.782 54.4305 125.213 54.4075 124.611C54.3945 124.319 54.4413 124.027 54.5452 123.754C54.6491 123.48 54.8078 123.231 55.0117 123.02C55.2156 122.81 55.4604 122.643 55.7311 122.531C56.0018 122.418 56.2927 122.361 56.586 122.364C57.1894 122.369 57.7678 122.605 58.2014 123.023C58.635 123.442 58.8906 124.01 58.9152 124.611Z" fill="#263238"/>
<path d="M49.2285 124.611C49.2406 124.903 49.1931 125.194 49.0888 125.467C48.9846 125.741 48.8258 125.99 48.6221 126.2C48.4184 126.41 48.1741 126.576 47.9038 126.69C47.6336 126.803 47.3431 126.86 47.0501 126.858C46.4455 126.855 45.8654 126.62 45.4303 126.201C44.9952 125.783 44.7387 125.213 44.714 124.611C44.7019 124.319 44.7495 124.028 44.8537 123.755C44.9579 123.482 45.1167 123.233 45.3204 123.023C45.5241 122.812 45.7685 122.646 46.0387 122.533C46.3089 122.42 46.5994 122.362 46.8925 122.364C47.497 122.367 48.0772 122.603 48.5123 123.021C48.9473 123.439 49.2039 124.009 49.2285 124.611Z" fill="#263238"/>
<path d="M39.5143 124.611C39.5274 124.903 39.4805 125.195 39.3766 125.469C39.2727 125.742 39.114 125.992 38.9101 126.202C38.7062 126.412 38.4614 126.579 38.1908 126.692C37.9201 126.804 37.6292 126.861 37.3358 126.858C36.7324 126.853 36.154 126.617 35.7204 126.199C35.2868 125.781 35.0312 125.212 35.0066 124.611C34.9945 124.319 35.0421 124.028 35.1463 123.755C35.2505 123.482 35.4093 123.233 35.613 123.023C35.8167 122.812 36.0611 122.646 36.3313 122.533C36.6015 122.42 36.892 122.362 37.1851 122.364C37.789 122.367 38.3683 122.603 38.8023 123.021C39.2363 123.44 39.4914 124.01 39.5143 124.611Z" fill="#263238"/>
<path d="M68.6431 124.611C68.6562 124.904 68.609 125.197 68.5043 125.472C68.3996 125.746 68.2396 125.996 68.0342 126.207C67.8289 126.417 67.5824 126.584 67.3101 126.696C67.0378 126.808 66.7454 126.863 66.4509 126.858C65.8475 126.853 65.2691 126.617 64.8355 126.199C64.4019 125.781 64.1463 125.212 64.1217 124.611C64.1096 124.319 64.1572 124.028 64.2614 123.755C64.3656 123.482 64.5244 123.233 64.7281 123.023C64.9318 122.812 65.1762 122.646 65.4464 122.533C65.7167 122.42 66.0071 122.362 66.3002 122.364C66.9065 122.364 67.4893 122.598 67.9262 123.017C68.3631 123.436 68.6201 124.007 68.6431 124.611Z" fill="#263238"/>
<path d="M78.3573 124.611C78.3694 124.903 78.3219 125.194 78.2176 125.467C78.1134 125.741 77.9546 125.99 77.7509 126.2C77.5472 126.41 77.3028 126.576 77.0326 126.69C76.7624 126.803 76.4719 126.86 76.1788 126.858C75.5743 126.855 74.9941 126.62 74.5591 126.201C74.124 125.783 73.8674 125.213 73.8428 124.611C73.8307 124.319 73.8782 124.028 73.9825 123.755C74.0867 123.482 74.2455 123.233 74.4492 123.023C74.6529 122.812 74.8973 122.646 75.1675 122.533C75.4377 122.42 75.7282 122.362 76.0213 122.364C76.6258 122.367 77.206 122.603 77.641 123.021C78.0761 123.439 78.3327 124.009 78.3573 124.611Z" fill="#263238"/>
<path d="M159.421 75.8033C160.332 77.2579 161.085 78.6579 161.873 80.1125C162.661 81.5671 163.36 83.0286 164.052 84.5241C165.463 87.5525 166.632 90.6878 167.545 93.9005C167.662 94.3035 167.758 94.7337 167.861 95.1503L168.011 95.7854L168.087 96.0995L168.176 96.6185C168.332 97.794 168.257 98.9884 167.956 100.136C167.49 101.925 166.773 103.64 165.826 105.23C164.135 108.126 162.092 110.803 159.743 113.2L156.879 110.987C158.324 108.333 159.612 105.596 160.736 102.792C161.232 101.552 161.583 100.26 161.784 98.9404C161.847 98.5402 161.828 98.1314 161.729 97.7385L161.455 96.9054C161.346 96.5571 161.243 96.2224 161.106 95.8742C160.07 93.0523 158.864 90.2952 157.496 87.6177C156.125 84.8861 154.659 82.1544 153.187 79.5525L159.421 75.8033Z" fill="#FF8B7B"/>
<path d="M157.564 110.01L154.42 111.677L158.037 115.897C158.037 115.897 160.298 114.374 160.393 112.052L157.564 110.01Z" fill="#FF8B7B"/>
<path d="M150.207 114.279L154.084 117.345L158.057 115.897L154.44 111.677L150.207 114.279Z" fill="#FF8B7B"/>
<path d="M137.012 53.4243C136.937 53.8067 136.67 54.1072 136.423 54.0184C136.176 53.9297 136.033 53.6223 136.108 53.2399C136.183 52.8575 136.45 52.598 136.704 52.6458C136.957 52.6936 137.053 53.0487 137.012 53.4243Z" fill="#263238"/>
<path d="M136.67 54.0799C135.979 55.1466 135.144 56.1139 134.19 56.955C134.414 57.1883 134.686 57.3703 134.988 57.4882C135.289 57.6061 135.613 57.6572 135.937 57.6379L136.67 54.0799Z" fill="#FF5652"/>
<path d="M135.437 67.4718V62.9987L141.383 63.6817C141.383 63.6817 141.28 67.5333 137.958 68.6601L135.437 67.4718Z" fill="#FF8B7B"/>
<path d="M137.142 59.7754L141.335 60.9773L141.41 63.7158L135.464 62.9987L137.142 59.7754Z" fill="#FF8B7B"/>
<path opacity="0.2" d="M141.335 60.9773L137.149 59.7754L136.327 61.3324C136.372 62.5593 136.756 63.7499 137.438 64.7722C138.12 65.7944 139.073 66.6083 140.191 67.1235C140.91 66.1221 141.33 64.9384 141.404 63.709L141.335 60.9773Z" fill="black"/>
<path d="M138.8 51.6009C138.859 51.6002 138.915 51.5783 138.958 51.5394C138.999 51.4962 139.022 51.4388 139.022 51.379C139.022 51.3192 138.999 51.2617 138.958 51.2185C138.718 50.9462 138.416 50.7357 138.077 50.6049C137.739 50.4741 137.373 50.4269 137.012 50.4673C136.956 50.4797 136.906 50.5133 136.873 50.5613C136.841 50.6093 136.828 50.6679 136.838 50.725C136.847 50.7821 136.879 50.8333 136.925 50.868C136.972 50.9026 137.03 50.9181 137.088 50.9112C137.374 50.8874 137.661 50.9305 137.928 51.0372C138.194 51.144 138.432 51.3112 138.622 51.5258C138.644 51.5511 138.672 51.571 138.702 51.584C138.733 51.597 138.767 51.6028 138.8 51.6009Z" fill="#263238"/>
<path d="M147.555 60.3354C146.87 63.8524 146.446 68.7147 148.925 71.064C148.925 71.064 147.96 74.6288 141.39 74.6288C134.19 74.6288 137.93 71.501 137.93 71.501C140.917 70.5723 140.897 67.1713 140.211 64.4397L147.555 60.3354Z" fill="#FF8B7B"/>
<path d="M150.261 73.4132C150.905 72.5049 150.878 69.6435 150.193 69.145C149.09 68.3255 144.356 68.1411 137.985 69.6025C138.67 72.3342 137.204 73.8229 137.204 73.8229L150.261 73.4132Z" fill="#496686"/>
<path d="M171.67 235.537C171.476 235.608 171.27 235.639 171.064 235.628C170.858 235.618 170.656 235.566 170.471 235.475C170.4 235.408 170.352 235.321 170.332 235.226C170.313 235.131 170.323 235.032 170.361 234.943C170.384 234.869 170.422 234.802 170.473 234.744C170.523 234.686 170.586 234.64 170.656 234.608C171.306 234.301 172.8 234.908 172.868 234.936C172.889 234.943 172.907 234.957 172.92 234.976C172.932 234.994 172.938 235.016 172.937 235.038C172.936 235.06 172.928 235.081 172.916 235.099C172.904 235.117 172.888 235.131 172.868 235.141C172.484 235.315 172.082 235.448 171.67 235.537ZM170.889 234.772L170.752 234.813C170.711 234.832 170.675 234.86 170.645 234.894C170.616 234.928 170.594 234.968 170.58 235.011C170.519 235.216 170.58 235.277 170.621 235.298C170.882 235.523 171.841 235.298 172.519 235.045C172.002 234.835 171.446 234.742 170.889 234.772Z" fill="#407BFF"/>
<path d="M172.848 235.147H172.786C172.245 234.99 171.08 234.164 171.067 233.618C171.065 233.533 171.092 233.449 171.144 233.382C171.197 233.315 171.271 233.268 171.354 233.249C171.522 233.197 171.704 233.212 171.861 233.29C172.505 233.618 172.916 234.949 172.93 235.004C172.94 235.022 172.946 235.042 172.946 235.062C172.946 235.082 172.94 235.102 172.93 235.12C172.92 235.132 172.907 235.141 172.893 235.145C172.878 235.15 172.863 235.151 172.848 235.147ZM171.478 233.454H171.423C171.286 233.502 171.286 233.57 171.286 233.597C171.286 233.925 172.067 234.567 172.656 234.833C172.506 234.302 172.2 233.826 171.779 233.467C171.686 233.425 171.581 233.421 171.485 233.454H171.478Z" fill="#407BFF"/>
<path d="M136.094 236.343C135.478 236.343 134.882 236.261 134.683 235.981C134.63 235.91 134.601 235.823 134.601 235.735C134.601 235.646 134.63 235.56 134.683 235.489C134.721 235.421 134.773 235.363 134.836 235.317C134.898 235.271 134.97 235.239 135.046 235.223C135.848 235.004 137.533 235.96 137.601 236.001C137.622 236.012 137.638 236.029 137.648 236.05C137.658 236.071 137.661 236.095 137.656 236.117C137.653 236.14 137.642 236.162 137.626 236.179C137.611 236.196 137.59 236.208 137.567 236.213C137.081 236.298 136.588 236.342 136.094 236.343ZM135.334 235.414C135.261 235.402 135.187 235.402 135.115 235.414C135.068 235.423 135.024 235.441 134.985 235.468C134.946 235.495 134.913 235.53 134.889 235.571C134.806 235.714 134.834 235.783 134.889 235.824C135.108 236.131 136.327 236.138 137.225 236.015C136.64 235.693 135.998 235.488 135.334 235.414Z" fill="#407BFF"/>
<path d="M137.553 236.213H137.505C136.923 235.953 135.772 234.915 135.861 234.376C135.861 234.246 135.971 234.089 136.286 234.055C136.399 234.043 136.514 234.054 136.622 234.088C136.731 234.122 136.831 234.178 136.916 234.253C137.358 234.774 137.62 235.423 137.663 236.104C137.665 236.123 137.662 236.143 137.653 236.161C137.645 236.179 137.632 236.195 137.615 236.206C137.596 236.215 137.574 236.217 137.553 236.213ZM136.375 234.239H136.327C136.122 234.239 136.108 234.342 136.108 234.369C136.053 234.697 136.834 235.509 137.43 235.865C137.375 235.317 137.153 234.8 136.793 234.383C136.676 234.286 136.527 234.235 136.375 234.239Z" fill="#407BFF"/>
<path d="M142.849 236.097H138.033L137.553 224.972H142.369L142.849 236.097Z" fill="#FF8B7B"/>
<path d="M178.219 233.877L173.505 234.888L168.779 224.528L173.492 223.517L178.219 233.877Z" fill="#FF8B7B"/>
<path d="M173.053 234.417L178.349 233.276C178.442 233.256 178.54 233.269 178.625 233.312C178.71 233.356 178.777 233.428 178.815 233.515L180.651 237.483C180.7 237.579 180.725 237.686 180.724 237.794C180.724 237.901 180.698 238.008 180.649 238.104C180.599 238.2 180.528 238.282 180.44 238.346C180.352 238.409 180.251 238.45 180.144 238.466C178.294 238.835 177.403 238.924 175.04 239.422C173.615 239.73 170.382 240.515 168.402 240.945C166.422 241.376 165.744 239.477 166.518 239.129C169.943 237.551 171.416 236.165 172.355 234.874C172.523 234.641 172.772 234.478 173.053 234.417Z" fill="#263238"/>
<path d="M138.06 235.544H143.328C143.423 235.545 143.515 235.577 143.588 235.637C143.661 235.697 143.712 235.779 143.733 235.871L144.685 240.14C144.712 240.242 144.714 240.35 144.692 240.454C144.669 240.557 144.623 240.654 144.557 240.737C144.49 240.82 144.405 240.886 144.309 240.931C144.212 240.975 144.106 240.997 144 240.993C142.102 240.993 139.362 240.85 136.971 240.85C134.183 240.85 131.778 241 128.504 241C126.524 241 125.976 239.013 126.805 238.828C130.573 238.009 133.655 237.92 136.909 235.919C137.251 235.691 137.649 235.561 138.06 235.544Z" fill="#263238"/>
<path d="M157.564 72.1498C162.085 73.181 165.785 84.6744 165.785 84.6744L156.715 91.565C154.375 89.0677 152.723 86.0093 151.919 82.6871C150.35 76.6638 152.919 71.0913 157.564 72.1498Z" fill="#407BFF"/>
<path opacity="0.4" d="M157.564 72.1498C162.085 73.181 165.785 84.6744 165.785 84.6744L156.715 91.565C154.375 89.0677 152.723 86.0093 151.919 82.6871C150.35 76.6638 152.919 71.0913 157.564 72.1498Z" fill="#435160"/>
<path d="M133.792 85.8627C132.662 87.0783 131.539 88.1572 130.367 89.2772C129.785 89.8304 129.196 90.3699 128.593 90.9026L127.682 91.6947L127.456 91.8928C127.339 91.9884 127.209 92.1045 127.065 92.2138C126.657 92.5286 126.211 92.7903 125.736 92.9923C125.209 93.2138 124.643 93.3298 124.071 93.3337C123.581 93.3358 123.093 93.2502 122.633 93.0811C122.122 92.8871 121.656 92.5921 121.263 92.2138C120.763 91.7221 120.393 91.1143 120.187 90.445C120.088 90.1134 120.024 89.7723 119.995 89.4275C119.956 89.0209 119.956 88.6116 119.995 88.2051C119.995 87.8773 120.071 87.5973 120.119 87.3241C120.309 86.3929 120.577 85.4792 120.92 84.5924C121.23 83.7523 121.584 82.9294 121.982 82.1271C122.414 81.2598 122.838 80.6247 123.256 79.9008C124.952 77.1279 126.889 74.5091 129.045 72.0747C131.178 69.6533 133.528 67.4314 136.067 65.4367L138.588 68.025C136.82 70.3879 135.074 72.9146 133.464 75.4141C131.863 77.8925 130.402 80.4573 129.086 83.0969C128.785 83.7388 128.401 84.4627 128.216 84.9817C128.031 85.5007 127.757 86.1973 127.572 86.8187C127.405 87.3852 127.276 87.9625 127.188 88.5465C127.181 88.6374 127.181 88.7288 127.188 88.8197C127.188 88.8675 127.188 88.9016 127.188 88.7514C127.177 88.6004 127.147 88.4513 127.099 88.3075C126.951 87.8234 126.68 87.3857 126.312 87.0373C125.698 86.4495 124.881 86.1195 124.03 86.1153C123.65 86.1121 123.273 86.1841 122.921 86.327C122.585 86.4705 122.578 86.5114 122.585 86.4909L122.845 86.2519L123.667 85.5007L125.305 83.971C126.394 82.9535 127.483 81.8676 128.511 80.8637L133.792 85.8627Z" fill="#FF8B7B"/>
<path opacity="0.2" d="M153.673 80.5837C156.125 83.0013 156.92 87.4129 157.098 91.2372L156.701 91.5445C154.356 89.0505 152.704 85.9908 151.905 82.6666C151.816 82.3047 151.734 81.9837 151.673 81.5945L153.673 80.5837Z" fill="black"/>
<path d="M129.004 76.9643C128.017 82.1545 127.401 92.8079 130.257 113.917H156.029C156.208 109.97 153.721 90.7318 157.537 72.1498C154.689 71.5999 151.807 71.2372 148.912 71.0639C145.261 70.8518 141.601 70.8518 137.951 71.0639C136.738 71.1732 135.553 71.3439 134.525 71.5352C133.16 71.7716 131.899 72.4182 130.912 73.3885C129.926 74.3588 129.26 75.6064 129.004 76.9643Z" fill="#407BFF"/>
<path opacity="0.4" d="M129.004 76.9643C128.017 82.1545 127.401 92.8079 130.257 113.917H156.029C156.208 109.97 153.721 90.7318 157.537 72.1498C154.689 71.5999 151.807 71.2372 148.912 71.0639C145.261 70.8518 141.601 70.8518 137.951 71.0639C136.738 71.1732 135.553 71.3439 134.525 71.5352C133.16 71.7716 131.899 72.4182 130.912 73.3885C129.926 74.3588 129.26 75.6064 129.004 76.9643Z" fill="#435160"/>
<path opacity="0.2" d="M132.943 84.6334L128.291 83.5203C128.141 86.3339 128.134 89.8235 128.339 94.1259C130.484 91.6947 133.224 87.9046 132.943 84.6334Z" fill="black"/>
<path opacity="0.2" d="M137.553 224.979L137.8 230.709H142.623L142.376 224.979H137.553Z" fill="black"/>
<path opacity="0.2" d="M173.492 223.517L168.779 224.535L171.217 229.875L175.931 228.858L173.492 223.517Z" fill="black"/>
<path d="M149.843 55.193C148.61 59.7959 148.117 62.5548 145.267 64.4738C140.979 67.3489 135.642 64.0436 135.471 59.1676C135.32 54.7696 137.375 47.9815 142.321 47.0527C143.414 46.8413 144.542 46.912 145.6 47.2581C146.657 47.6042 147.608 48.2142 148.362 49.0301C149.115 49.846 149.647 50.8406 149.907 51.9194C150.166 52.9981 150.144 54.1251 149.843 55.193Z" fill="#FF8B7B"/>
<path d="M139.067 55.3706C138.835 54.756 137.766 49.9961 138.773 48.76C139.78 47.5239 151.179 48.4117 152.865 50.0644C155.66 52.796 153.721 55.2613 150.659 58.4232C148.357 60.7998 148.268 63.4768 147.103 63.8865C145.048 64.5694 141.91 63.9275 141.28 61.7558C140.65 59.5842 139.067 55.3706 139.067 55.3706Z" fill="#263238"/>
<path d="M151.446 44.6557C147.418 42.9416 139.855 44.8333 135.779 43.8567C135.725 45.3695 136.223 46.8505 137.18 48.0256C138.138 49.2008 139.489 49.9905 140.986 50.2488C144.372 50.8916 147.814 51.2072 151.261 51.1912C155.749 51.0136 154.872 46.1103 151.446 44.6557Z" fill="#263238"/>
<path d="M152.084 50.2146C153.554 50.359 155.034 50.0743 156.345 49.3951C157.098 51.2185 152.954 51.7102 152.084 50.2146Z" fill="#263238"/>
<path d="M141.225 55.5618C141.133 56.7441 140.651 57.8629 139.855 58.7442C138.8 59.8983 137.704 59.1812 137.519 57.7744C137.355 56.5111 137.697 54.3599 138.978 53.7521C140.259 53.1443 141.314 54.1345 141.225 55.5618Z" fill="#FF8B7B"/>
<path d="M139.403 113.917C139.403 113.917 144.884 150.623 147.87 164.377C151.159 179.435 168.785 229.254 168.785 229.254L177.431 227.41C177.431 227.41 165.1 186.804 162.36 165.75C160.243 149.578 156.064 113.924 156.064 113.924L139.403 113.917Z" fill="#496686"/>
<path d="M166.723 226.393C166.689 226.393 168.333 229.5 168.333 229.5L178.034 227.41L177.219 224.508L166.723 226.393Z" fill="#263238"/>
<path opacity="0.3" d="M142.856 127.022C149.179 128.258 148.514 151.764 147.754 163.851C145.925 155.308 143.26 138.864 141.438 127.193C141.877 126.976 142.377 126.916 142.856 127.022Z" fill="black"/>
<path d="M130.257 113.917C130.257 113.917 129.572 149.831 130.12 164.452C130.669 179.688 136.005 229.575 136.005 229.575H144.164C144.164 229.575 144.466 180.576 144.849 165.613C145.247 149.298 147.22 113.889 147.22 113.889L130.257 113.917Z" fill="#496686"/>
<path d="M134.436 226.358C134.395 226.358 134.895 229.773 134.895 229.773H144.822L145.089 226.754L134.436 226.358Z" fill="#263238"/>
<path d="M139.102 78.535C141.41 84.7427 127.839 92.0499 127.839 92.0499L121.961 84.5378C121.961 84.5378 125.88 76.7595 130.696 73.2493C136.635 68.9128 137.341 73.8161 139.102 78.535Z" fill="#407BFF"/>
<path opacity="0.4" d="M139.102 78.535C141.41 84.7427 127.839 92.0499 127.839 92.0499L121.961 84.5378C121.961 84.5378 125.88 76.7595 130.696 73.2493C136.635 68.9128 137.341 73.8161 139.102 78.535Z" fill="#435160"/>
<path d="M192.276 31.414C205.931 31.414 217 24.3817 217 15.707C217 7.03226 205.931 0 192.276 0C178.622 0 167.552 7.03226 167.552 15.707C167.552 24.3817 178.622 31.414 192.276 31.414Z" fill="#7092A8"/>
<path d="M183.35 23.6151C181.721 23.6094 180.146 23.0309 178.903 21.9816C177.66 20.9322 176.828 19.4793 176.554 17.8787C176.274 16.1414 176.663 14.3628 177.642 12.899C178.621 11.4351 180.119 10.3941 181.836 9.9842C183.24 9.65529 184.712 9.77661 186.043 10.3309C187.374 10.8851 188.496 11.8441 189.248 13.071L205.121 9.79981C205.732 9.6686 206.37 9.77139 206.908 10.0877C207.446 10.4041 207.845 10.9108 208.026 11.5071C208.109 11.8199 208.127 12.1464 208.08 12.4665C208.032 12.7866 207.92 13.0938 207.749 13.3692C207.579 13.6446 207.354 13.8825 207.088 14.0684C206.822 14.2543 206.521 14.3843 206.203 14.4505L205.786 14.5324C205.726 14.5461 205.67 14.5723 205.621 14.6092C205.573 14.6461 205.532 14.6929 205.503 14.7465C205.474 14.8001 205.457 14.8593 205.452 14.9201C205.448 14.9809 205.456 15.042 205.477 15.0992L205.758 15.8231C205.853 16.0566 205.863 16.316 205.785 16.5557C205.707 16.7955 205.547 17.0003 205.333 17.1343C205.166 17.2416 205.024 17.384 204.918 17.5515C204.811 17.7189 204.743 17.9075 204.717 18.104C204.699 18.3289 204.61 18.5423 204.462 18.7131C204.314 18.8838 204.115 19.003 203.895 19.0533L203.566 19.1147C203.344 19.1582 203.115 19.1292 202.911 19.032C202.707 18.9347 202.541 18.7746 202.436 18.5752C202.296 18.3333 202.084 18.1413 201.829 18.0266C201.574 17.9119 201.29 17.8803 201.016 17.9363C200.742 17.9923 200.492 18.133 200.303 18.3385C200.114 18.5439 199.995 18.8036 199.962 19.0806C199.943 19.3061 199.853 19.5196 199.704 19.6903C199.555 19.861 199.355 19.9799 199.134 20.0299L198.818 20.0913C198.596 20.1341 198.366 20.1048 198.161 20.0078C197.956 19.9107 197.788 19.7509 197.681 19.5518C197.581 19.3803 197.444 19.2334 197.279 19.1223C197.114 19.0111 196.926 18.9385 196.729 18.9099C196.479 18.8686 196.251 18.7417 196.085 18.551C195.918 18.3602 195.824 18.1177 195.818 17.865V17.0933C195.816 17.0319 195.801 16.9717 195.772 16.9173C195.744 16.8628 195.703 16.8156 195.653 16.7792C195.606 16.7392 195.549 16.7109 195.489 16.6966C195.428 16.6824 195.365 16.6826 195.304 16.6972L190.214 17.7557C190.004 19.1573 189.365 20.46 188.384 21.4856C187.403 22.5112 186.128 23.2096 184.734 23.4854C184.278 23.5767 183.814 23.6202 183.35 23.6151ZM181.98 10.6398C180.433 11.0103 179.085 11.9492 178.203 13.2687C177.322 14.5881 176.972 16.1907 177.225 17.7557C177.494 19.2171 178.279 20.5344 179.437 21.4692C180.595 22.4041 182.051 22.8949 183.541 22.8528C185.03 22.8107 186.456 22.2386 187.559 21.2398C188.663 20.2411 189.371 18.8816 189.556 17.4075V17.1616L195.092 16.0212C195.25 15.9867 195.414 15.9879 195.571 16.0245C195.729 16.0611 195.876 16.1323 196.003 16.2329C196.129 16.3317 196.233 16.4568 196.306 16.5994C196.38 16.7421 196.421 16.899 196.428 17.0592V17.8309C196.429 17.9244 196.462 18.0147 196.522 18.0867C196.582 18.1588 196.664 18.2083 196.756 18.227C197.056 18.2697 197.342 18.3799 197.592 18.5491C197.843 18.7183 198.051 18.9421 198.202 19.2035C198.238 19.2772 198.297 19.3378 198.369 19.377C198.441 19.4161 198.524 19.4319 198.606 19.4221L198.921 19.3538C199.001 19.331 199.072 19.2838 199.123 19.2189C199.175 19.154 199.205 19.0746 199.209 18.9918C199.26 18.5744 199.442 18.1835 199.728 17.8745C200.014 17.5654 200.39 17.3536 200.803 17.2691C201.217 17.1846 201.646 17.2316 202.031 17.4035C202.416 17.5753 202.737 17.8634 202.949 18.227C202.985 18.3008 203.044 18.3612 203.116 18.3993C203.189 18.4374 203.272 18.4512 203.354 18.4387L203.682 18.3772C203.762 18.3542 203.831 18.3067 203.882 18.2417C203.932 18.1767 203.961 18.0974 203.963 18.0153C203.997 17.7163 204.099 17.4289 204.26 17.1747C204.422 16.9204 204.639 16.7058 204.895 16.547C204.973 16.4965 205.03 16.4199 205.057 16.331C205.083 16.2421 205.077 16.1468 205.039 16.0621L204.765 15.3382C204.707 15.1885 204.682 15.0281 204.692 14.8679C204.703 14.7078 204.748 14.5518 204.825 14.4108C204.902 14.2698 205.009 14.1472 205.138 14.0514C205.267 13.9557 205.416 13.8891 205.573 13.8563L205.991 13.7744C206.218 13.7265 206.432 13.6332 206.622 13.5002C206.811 13.3672 206.972 13.1972 207.094 13.0005C207.215 12.8039 207.296 12.5846 207.33 12.3561C207.364 12.1276 207.351 11.8945 207.293 11.671C207.159 11.2427 206.868 10.8803 206.478 10.6563C206.089 10.4322 205.628 10.3629 205.189 10.4622L188.837 13.829L188.714 13.6105C188.052 12.4524 187.034 11.538 185.81 11.0028C184.585 10.4676 183.221 10.3403 181.918 10.6398H181.98ZM183.35 21.0815C182.229 21.0783 181.153 20.6463 180.343 19.8747C179.533 19.1031 179.051 18.0509 178.997 16.9353C178.943 15.8197 179.32 14.726 180.052 13.88C180.783 13.034 181.813 12.5003 182.928 12.3892C184.042 12.2781 185.157 12.598 186.042 13.2828C186.927 13.9677 187.515 14.9652 187.683 16.0694C187.852 17.1735 187.589 18.3001 186.948 19.2163C186.307 20.1325 185.338 20.7684 184.24 20.9928C183.952 21.0541 183.658 21.0861 183.363 21.0884L183.35 21.0815ZM183.35 13.0163C183.094 13.0178 182.84 13.0429 182.589 13.0915C181.659 13.3198 180.853 13.8986 180.341 14.7064C179.83 15.5142 179.652 16.4881 179.845 17.4239C180.038 18.3596 180.588 19.1843 181.378 19.725C182.168 20.2656 183.137 20.4801 184.083 20.3235C184.559 20.2259 185.012 20.0355 185.415 19.7632C185.818 19.4909 186.162 19.1421 186.43 18.7367C186.697 18.3314 186.881 17.8774 186.972 17.4009C187.063 16.9243 187.059 16.4346 186.96 15.9597C186.789 15.1305 186.336 14.3854 185.679 13.8494C185.021 13.3134 184.199 13.0193 183.35 13.0163Z" fill="white"/>
<path opacity="0.6" d="M172.149 40.6197C176.636 40.6197 180.274 38.3082 180.274 35.4568C180.274 32.6055 176.636 30.294 172.149 30.294C167.662 30.294 164.024 32.6055 164.024 35.4568C164.024 38.3082 167.662 40.6197 172.149 40.6197Z" fill="#7092A8"/>
<path opacity="0.3" d="M159.229 42.7367C161.071 42.7367 162.565 41.7889 162.565 40.6197C162.565 39.4505 161.071 38.5026 159.229 38.5026C157.386 38.5026 155.893 39.4505 155.893 40.6197C155.893 41.7889 157.386 42.7367 159.229 42.7367Z" fill="#98B0C9"/>
</svg>
